<svg width="460" height="135" viewBox="0 0 460 135" fill="none" xmlns="http://www.w3.org/2000/svg">
<path d="M156.706 16.5191C156.557 16.1807 156.481 15.7934 156.481 15.3571C156.481 14.9208 156.743 14.4132 157.265 13.8367C157.787 13.2601 158.571 12.9707 159.617 12.9707H169.421C170.585 12.9707 171.659 13.3514 172.643 14.1105C173.627 14.8696 174.329 15.8268 174.746 16.9821L186.567 50.4182L197.49 16.9821C198.356 14.3086 200.132 12.9707 202.818 12.9707H211.055C213.741 12.9707 215.516 14.3086 216.383 16.9821L227.306 50.4182L239.126 16.9821C239.544 15.829 240.245 14.8718 241.23 14.1105C242.214 13.3514 243.288 12.9707 244.452 12.9707H254.256C255.271 12.9707 256.039 13.2601 256.563 13.8367C257.084 14.4132 257.346 14.9208 257.346 15.3571C257.346 15.7934 257.287 16.1807 257.167 16.5191L237.2 69.2042C236.095 72.0759 233.947 73.5095 230.753 73.5095H224.261C220.949 73.5095 218.814 72.0737 217.858 69.2042L206.935 36.6987L196.012 69.2042C195.028 72.0759 192.894 73.5095 189.61 73.5095H183.073C179.909 73.5095 177.775 72.0737 176.67 69.2042L156.703 16.5191H156.706Z" fill="url(#paint0_linear_1327_22)"/>
<path d="M272.103 69.6272V16.9821C272.103 15.8847 272.52 14.9408 273.356 14.1528C274.192 13.3647 275.193 12.9707 276.357 12.9707H284.683C285.906 12.9707 286.928 13.3647 287.75 14.1528C288.571 14.9408 288.982 15.8847 288.982 16.9821V69.5404C288.982 70.6378 288.557 71.5728 287.707 72.3475C286.857 73.1222 285.849 73.5095 284.685 73.5095H276.359C275.195 73.5095 274.194 73.1355 273.358 72.3898C272.523 71.644 272.105 70.7224 272.105 69.625L272.103 69.6272Z" fill="url(#paint1_linear_1327_22)"/>
<path d="M307.768 69.5426V16.9821C307.768 15.8847 308.172 14.9408 308.977 14.1528C309.782 13.3647 310.768 12.9707 311.932 12.9707H325.093C326.137 12.9707 327.242 13.3647 328.406 14.1528C329.569 14.9408 330.526 15.8847 331.272 16.9821L358.311 56.2016V16.8998C358.311 15.8023 358.722 14.874 359.544 14.1127C360.363 13.3536 361.357 12.9729 362.521 12.9729H370.221C371.385 12.9729 372.379 13.3536 373.196 14.1127C374.022 14.8718 374.431 15.829 374.431 16.9844V69.5426C374.431 70.64 374.022 71.575 373.196 72.3497C372.379 73.1244 371.385 73.5117 370.221 73.5117H355.358C354.194 73.5117 353 73.1244 351.777 72.3497C350.554 71.575 349.584 70.64 348.866 69.5426L324.109 33.3217V69.5426C324.109 70.64 323.698 71.575 322.877 72.3497C322.055 73.1244 321.064 73.5117 319.9 73.5117H312.02C310.856 73.5117 309.855 73.1244 309.019 72.3497C308.183 71.575 307.766 70.64 307.766 69.5426H307.768Z" fill="url(#paint2_linear_1327_22)"/>
<path d="M393.208 69.6272V17.0667C393.208 15.9136 393.626 14.9408 394.462 14.1528C395.297 13.3647 396.298 12.9707 397.462 12.9707H422.488C435.442 12.9707 444.863 15.4127 450.758 20.2946C456.653 25.1786 459.601 32.832 459.601 43.2612C459.601 53.6905 456.651 61.3372 450.758 66.2057C444.863 71.0741 435.442 73.5095 422.488 73.5095H397.462C396.298 73.5095 395.297 73.1355 394.462 72.3898C393.626 71.644 393.208 70.7224 393.208 69.625V69.6272ZM410.087 61.5642H421.995C430.024 61.5642 435.487 60.1863 438.381 57.4281C441.275 54.67 442.725 49.9485 442.725 43.2657C442.725 36.5829 441.277 31.8525 438.381 29.081C435.487 26.3095 430.024 24.9226 421.995 24.9226H410.087V61.5665V61.5642Z" fill="url(#paint3_linear_1327_22)"/>
<path d="M161.642 86.5798C161.642 86.0299 161.923 85.7539 162.482 85.7539H163.219C163.778 85.7539 164.059 86.0299 164.059 86.5798V108.146C164.059 108.696 163.778 108.972 163.219 108.972H162.482C161.923 108.972 161.642 108.696 161.642 108.146V86.5798Z" fill="#24255B"/>
<path d="M170.924 86.5791C170.924 86.0292 171.205 85.7532 171.764 85.7532H172.605C173.001 85.7532 173.351 85.9291 173.655 86.2808L185.844 102.462C186.146 102.903 186.498 103.431 186.894 104.047C187.291 104.664 187.617 105.183 187.874 105.599H187.945C187.898 105.203 187.85 104.697 187.805 104.081C187.758 103.464 187.735 102.925 187.735 102.462V86.5769C187.735 86.027 188.027 85.751 188.61 85.751H189.312C189.871 85.751 190.152 86.027 190.152 86.5769V108.143C190.152 108.693 189.871 108.969 189.312 108.969H188.471C188.004 108.969 187.666 108.793 187.456 108.442L175.232 92.2601C174.904 91.8416 174.55 91.3251 174.165 90.7085C173.78 90.0919 173.459 89.5643 173.202 89.1235H173.131C173.178 89.542 173.223 90.0585 173.27 90.6751C173.318 91.2917 173.341 91.8193 173.341 92.2601V108.146C173.341 108.695 173.06 108.971 172.501 108.971H171.764C171.205 108.971 170.924 108.695 170.924 108.146V86.5791Z" fill="#24255B"/>
<path d="M195.366 97.2129C195.366 95.4966 195.675 93.9161 196.294 92.4736C196.912 91.031 197.769 89.7822 198.867 88.7248C199.965 87.6674 201.266 86.8415 202.772 86.2472C204.278 85.6528 205.93 85.3545 207.727 85.3545C209.221 85.3545 210.709 85.5816 212.193 86.0312C213.676 86.4831 214.944 87.0819 215.994 87.8321C216.367 88.1616 216.414 88.5489 216.134 88.9875L215.817 89.4171C215.489 89.8356 215.092 89.8802 214.627 89.5485C213.648 88.9096 212.555 88.4087 211.353 88.0458C210.149 87.683 208.966 87.5005 207.798 87.5005C206.351 87.5005 205.019 87.7364 203.806 88.2106C202.592 88.6847 201.546 89.3503 200.671 90.2096C199.795 91.0689 199.113 92.0929 198.622 93.2816C198.13 94.4704 197.885 95.7704 197.885 97.1795C197.885 98.5887 198.135 99.9755 198.638 101.209C199.141 102.442 199.835 103.504 200.723 104.397C201.61 105.289 202.665 105.982 203.893 106.478C205.118 106.974 206.454 107.221 207.904 107.221C209.165 107.221 210.437 107.001 211.721 106.56C213.006 106.12 214.172 105.503 215.225 104.71C215.668 104.381 216.065 104.412 216.414 104.811L216.728 105.173C217.054 105.592 217.031 105.977 216.658 106.329C215.468 107.275 214.084 108.018 212.507 108.557C210.93 109.096 209.372 109.365 207.831 109.365C206.011 109.365 204.339 109.062 202.821 108.457C201.303 107.851 199.991 107.01 198.881 105.93C197.772 104.853 196.908 103.568 196.289 102.084C195.671 100.597 195.361 98.9738 195.361 97.2129H195.366Z" fill="#24255B"/>
<path d="M219.782 97.2107C219.782 95.5389 220.096 93.9806 220.727 92.5381C221.357 91.0956 222.233 89.8423 223.354 88.7738C224.475 87.7053 225.8 86.8705 227.33 86.2627C228.859 85.6572 230.521 85.3545 232.32 85.3545C234.119 85.3545 235.746 85.6572 237.275 86.2627C238.805 86.8682 240.129 87.6986 241.251 88.756C242.372 89.8134 243.253 91.0667 243.895 92.5203C244.537 93.974 244.858 95.5367 244.858 97.2107C244.858 98.8847 244.537 100.53 243.895 102.017C243.253 103.504 242.372 104.791 241.251 105.881C240.129 106.972 238.805 107.825 237.275 108.441C235.746 109.058 234.093 109.365 232.32 109.365C230.547 109.365 228.892 109.056 227.365 108.441C225.835 107.825 224.511 106.972 223.389 105.881C222.268 104.791 221.388 103.504 220.745 102.017C220.103 100.53 219.782 98.9293 219.782 97.2107ZM222.304 97.2107C222.304 98.6421 222.561 99.9688 223.073 101.191C223.585 102.413 224.287 103.47 225.174 104.361C226.062 105.254 227.117 105.953 228.345 106.458C229.57 106.965 230.894 107.217 232.32 107.217C233.746 107.217 235.07 106.963 236.296 106.458C237.521 105.953 238.578 105.251 239.466 104.361C240.354 103.468 241.053 102.413 241.567 101.191C242.079 99.9688 242.337 98.6421 242.337 97.2107C242.337 95.7793 242.079 94.5349 241.567 93.3462C241.053 92.1575 240.354 91.1334 239.466 90.2742C238.578 89.4149 237.523 88.7382 236.296 88.244C235.07 87.7476 233.744 87.5004 232.32 87.5004C230.897 87.5004 229.542 87.7476 228.328 88.244C227.115 88.7404 226.057 89.4216 225.158 90.292C224.258 91.1624 223.557 92.1864 223.057 93.364C222.554 94.5416 222.304 95.8238 222.304 97.2107Z" fill="#24255B"/>
<path d="M250.076 86.5798C250.076 86.0299 250.357 85.7539 250.917 85.7539H257.572C258.622 85.7539 259.498 85.8029 260.199 85.9031C260.9 86.0032 261.519 86.1724 262.055 86.4151C263.221 86.9426 264.12 87.7151 264.751 88.7258C265.381 89.7386 265.697 90.9051 265.697 92.2274C265.697 93.8124 265.27 95.1837 264.42 96.339C263.568 97.4944 262.442 98.2601 261.039 98.6341V98.7009C261.087 98.7677 261.162 98.8834 261.266 99.0482C261.37 99.2129 261.505 99.4066 261.67 99.627L266.467 108.015C266.63 108.324 266.653 108.56 266.538 108.725C266.42 108.89 266.2 108.972 265.872 108.972H264.961C264.47 108.972 264.132 108.785 263.946 108.411L258.693 99.1973H252.494V108.146C252.494 108.696 252.213 108.972 251.653 108.972H250.917C250.357 108.972 250.076 108.696 250.076 108.146V86.5798ZM258.341 97.1493C259.812 97.1493 260.99 96.7085 261.878 95.8292C262.765 94.9499 263.209 93.7701 263.209 92.2964C263.209 91.3726 262.982 90.5512 262.527 89.8366C262.071 89.122 261.436 88.5877 260.617 88.2338C260.22 88.0802 259.788 87.9689 259.321 87.9043C258.853 87.8375 258.211 87.8041 257.394 87.8041H252.491V97.1493H258.339H258.341Z" fill="#24255B"/>
<path d="M271.4 86.5798C271.4 86.0299 271.681 85.7539 272.241 85.7539H279.911C281.032 85.7539 282.059 85.9253 282.994 86.2659C283.926 86.6065 284.727 87.0873 285.393 87.7017C286.058 88.3184 286.578 89.0552 286.951 89.9145C287.324 90.7738 287.51 91.7199 287.51 92.755C287.51 93.7901 287.324 94.7763 286.951 95.6445C286.578 96.5149 286.058 97.2628 285.393 97.8906C284.727 98.5184 283.926 99.0036 282.994 99.3442C282.059 99.6848 281.032 99.8562 279.911 99.8562H273.818V108.146C273.818 108.696 273.537 108.972 272.977 108.972H272.241C271.681 108.972 271.4 108.696 271.4 108.146V86.5798ZM279.595 97.8105C281.275 97.8105 282.6 97.3652 283.57 96.4726C284.538 95.5799 285.024 94.3422 285.024 92.7572C285.024 91.1722 284.545 90.0325 283.589 89.142C282.63 88.2494 281.313 87.8041 279.632 87.8041H273.818V97.8105H279.597H279.595Z" fill="#24255B"/>
<path d="M290.353 97.2107C290.353 95.5389 290.667 93.9806 291.297 92.5381C291.927 91.0956 292.803 89.8423 293.924 88.7738C295.046 87.7053 296.37 86.8705 297.9 86.2627C299.43 85.6572 301.092 85.3545 302.89 85.3545C304.689 85.3545 306.316 85.6572 307.846 86.2627C309.375 86.8682 310.7 87.6986 311.821 88.756C312.942 89.8134 313.823 91.0667 314.465 92.5203C315.107 93.974 315.428 95.5367 315.428 97.2107C315.428 98.8847 315.107 100.53 314.465 102.017C313.823 103.504 312.942 104.791 311.821 105.881C310.7 106.972 309.375 107.825 307.846 108.441C306.316 109.058 304.663 109.365 302.89 109.365C301.118 109.365 299.463 109.056 297.935 108.441C296.405 107.825 295.081 106.972 293.96 105.881C292.838 104.791 291.958 103.504 291.316 102.017C290.674 100.53 290.353 98.9293 290.353 97.2107ZM292.874 97.2107C292.874 98.6421 293.131 99.9688 293.643 101.191C294.156 102.413 294.857 103.47 295.744 104.361C296.632 105.254 297.687 105.953 298.915 106.458C300.14 106.965 301.465 107.217 302.89 107.217C304.316 107.217 305.641 106.963 306.866 106.458C308.091 105.953 309.149 105.251 310.036 104.361C310.924 103.468 311.623 102.413 312.137 101.191C312.65 99.9688 312.907 98.6421 312.907 97.2107C312.907 95.7793 312.65 94.5349 312.137 93.3462C311.623 92.1575 310.924 91.1334 310.036 90.2742C309.149 89.4149 308.093 88.7382 306.866 88.244C305.641 87.7476 304.314 87.5004 302.89 87.5004C301.467 87.5004 300.112 87.7476 298.898 88.244C297.685 88.7404 296.627 89.4216 295.728 90.292C294.829 91.1624 294.127 92.1864 293.627 93.364C293.124 94.5416 292.874 95.8238 292.874 97.2107Z" fill="#24255B"/>
<path d="M320.643 86.5798C320.643 86.0299 320.924 85.7539 321.483 85.7539H328.138C329.188 85.7539 330.064 85.8029 330.765 85.9031C331.467 86.0032 332.085 86.1724 332.621 86.4151C333.787 86.9426 334.687 87.7151 335.317 88.7258C335.947 89.7386 336.264 90.9051 336.264 92.2274C336.264 93.8124 335.836 95.1837 334.986 96.339C334.134 97.4944 333.008 98.2601 331.606 98.6341V98.7009C331.653 98.7677 331.729 98.8834 331.832 99.0482C331.936 99.2129 332.071 99.4066 332.236 99.627L337.033 108.015C337.196 108.324 337.22 108.56 337.104 108.725C336.986 108.89 336.766 108.972 336.438 108.972H335.527C335.036 108.972 334.698 108.785 334.512 108.411L329.259 99.1973H323.06V108.146C323.06 108.696 322.779 108.972 322.22 108.972H321.483C320.924 108.972 320.643 108.696 320.643 108.146V86.5798ZM328.908 97.1493C330.378 97.1493 331.556 96.7085 332.444 95.8292C333.332 94.9499 333.775 93.7701 333.775 92.2964C333.775 91.3726 333.549 90.5512 333.093 89.8366C332.638 89.122 332.002 88.5877 331.183 88.2338C330.787 88.0802 330.355 87.9689 329.887 87.9043C329.42 87.8375 328.778 87.8041 327.961 87.8041H323.058V97.1493H328.905H328.908Z" fill="#24255B"/>
<path d="M347.68 86.4151C347.795 85.9743 348.112 85.7539 348.626 85.7539H349.783C350.274 85.7539 350.588 85.9743 350.73 86.4151L359.205 108.013C359.391 108.652 359.157 108.97 358.504 108.97H357.734C357.174 108.97 356.846 108.75 356.754 108.309L354.127 101.573H344.249L341.657 108.309C341.518 108.75 341.19 108.97 340.678 108.97H339.941C339.24 108.97 338.994 108.652 339.205 108.013L347.68 86.4151ZM353.423 99.5936L350.165 91.1722C350.003 90.776 349.837 90.2796 349.674 89.6852C349.511 89.0908 349.37 88.5744 349.254 88.1336H349.183C349.065 88.5744 348.914 89.0908 348.728 89.6852C348.541 90.2796 348.378 90.776 348.237 91.1722L344.946 99.5936H353.421H353.423Z" fill="#24255B"/>
<path d="M363.299 86.5798C363.299 86.0299 363.58 85.7539 364.139 85.7539H371.25C373.141 85.7539 374.85 86.0233 376.38 86.562C377.909 87.1007 379.21 87.8776 380.284 88.8905C381.358 89.9034 382.18 91.1188 382.754 92.5391C383.325 93.9593 383.611 95.5599 383.611 97.3452C383.611 99.1305 383.325 100.769 382.754 102.2C382.182 103.632 381.358 104.847 380.284 105.849C379.21 106.851 377.907 107.621 376.38 108.16C374.85 108.698 373.141 108.968 371.25 108.968H364.139C363.58 108.968 363.299 108.692 363.299 108.142V86.5753V86.5798ZM371.004 106.924C372.567 106.924 373.976 106.71 375.225 106.281C376.474 105.851 377.536 105.223 378.412 104.397C379.288 103.572 379.954 102.565 380.409 101.377C380.865 100.188 381.092 98.8456 381.092 97.3474C381.092 95.8493 380.858 94.547 380.391 93.3672C379.923 92.1896 379.257 91.1878 378.393 90.3619C377.529 89.5361 376.472 88.9038 375.223 88.4631C373.974 88.0223 372.567 87.8019 371.002 87.8019H365.714V106.924H371.002H371.004Z" fill="#24255B"/>
<path d="M387.221 97.2107C387.221 95.5389 387.535 93.9806 388.165 92.5381C388.795 91.0956 389.671 89.8423 390.793 88.7738C391.914 87.7053 393.238 86.8705 394.768 86.2627C396.298 85.6572 397.96 85.3545 399.759 85.3545C401.557 85.3545 403.184 85.6572 404.714 86.2627C406.244 86.8682 407.568 87.6986 408.689 88.756C409.811 89.8134 410.691 91.0667 411.333 92.5203C411.975 93.974 412.296 95.5367 412.296 97.2107C412.296 98.8847 411.975 100.53 411.333 102.017C410.691 103.504 409.811 104.791 408.689 105.881C407.568 106.972 406.244 107.825 404.714 108.441C403.184 109.058 401.532 109.365 399.759 109.365C397.986 109.365 396.331 109.056 394.803 108.441C393.274 107.825 391.949 106.972 390.828 105.881C389.707 104.791 388.826 103.504 388.184 102.017C387.542 100.53 387.221 98.9293 387.221 97.2107ZM389.742 97.2107C389.742 98.6421 389.999 99.9688 390.512 101.191C391.024 102.413 391.725 103.47 392.613 104.361C393.5 105.254 394.556 105.953 395.783 106.458C397.008 106.965 398.333 107.217 399.759 107.217C401.184 107.217 402.509 106.963 403.734 106.458C404.959 105.953 406.017 105.251 406.905 104.361C407.792 103.468 408.491 102.413 409.006 101.191C409.518 99.9688 409.775 98.6421 409.775 97.2107C409.775 95.7793 409.518 94.5349 409.006 93.3462C408.491 92.1575 407.792 91.1334 406.905 90.2742C406.017 89.4149 404.962 88.7382 403.734 88.244C402.509 87.7476 401.182 87.5004 399.759 87.5004C398.335 87.5004 396.98 87.7476 395.767 88.244C394.553 88.7404 393.496 89.4216 392.596 90.292C391.697 91.1624 390.996 92.1864 390.495 93.364C389.992 94.5416 389.742 95.8238 389.742 97.2107Z" fill="#24255B"/>
<path d="M417.515 86.5798C417.515 86.0299 417.796 85.7539 418.355 85.7539H425.01C426.061 85.7539 426.936 85.8029 427.638 85.9031C428.339 86.0032 428.957 86.1724 429.493 86.4151C430.659 86.9426 431.559 87.7151 432.189 88.7258C432.819 89.7386 433.136 90.9051 433.136 92.2274C433.136 93.8124 432.708 95.1837 431.859 96.339C431.006 97.4944 429.88 98.2601 428.478 98.6341V98.7009C428.525 98.7677 428.601 98.8834 428.705 99.0482C428.808 99.2129 428.943 99.4066 429.108 99.627L433.905 108.015C434.068 108.324 434.092 108.56 433.976 108.725C433.858 108.89 433.639 108.972 433.31 108.972H432.399C431.908 108.972 431.571 108.785 431.384 108.411L426.131 99.1973H419.932V108.146C419.932 108.696 419.651 108.972 419.092 108.972H418.355C417.796 108.972 417.515 108.696 417.515 108.146V86.5798ZM425.78 97.1493C427.25 97.1493 428.428 96.7085 429.316 95.8292C430.204 94.9499 430.647 93.7701 430.647 92.2964C430.647 91.3726 430.421 90.5512 429.965 89.8366C429.51 89.122 428.875 88.5877 428.055 88.2338C427.659 88.0802 427.227 87.9689 426.759 87.9043C426.292 87.8375 425.65 87.8041 424.833 87.8041H419.93V97.1493H425.777H425.78Z" fill="#24255B"/>
<path d="M444.552 86.4151C444.667 85.9743 444.984 85.7539 445.498 85.7539H446.655C447.146 85.7539 447.46 85.9743 447.602 86.4151L456.077 108.013C456.263 108.652 456.03 108.97 455.376 108.97H454.606C454.047 108.97 453.718 108.75 453.626 108.309L450.999 101.573H441.121L438.529 108.309C438.39 108.75 438.062 108.97 437.55 108.97H436.813C436.112 108.97 435.866 108.652 436.077 108.013L444.552 86.4151ZM450.295 99.5936L447.038 91.1722C446.875 90.776 446.709 90.2796 446.546 89.6852C446.384 89.0908 446.242 88.5744 446.126 88.1336H446.055C445.937 88.5744 445.786 89.0908 445.6 89.6852C445.413 90.2796 445.25 90.776 445.109 91.1722L441.818 99.5936H450.293H450.295Z" fill="#24255B"/>
<path fill-rule="evenodd" clip-rule="evenodd" d="M110.791 78.5628L96.9972 25.388C92.7408 8.97493 81.8223 12.087 73.699 19.2395L2.56519 81.8686C-3.20682 86.9485 1.84753 90.301 7.06241 86.953L72.3935 45.04C80.3115 39.96 84.346 45.6366 86.532 49.205L105.201 79.6959C107.604 83.6205 112.427 84.8805 110.789 78.5628H110.791Z" fill="#1C94D2"/>
<path opacity="0.5" fill-rule="evenodd" clip-rule="evenodd" d="M110.791 78.5628L96.9972 25.388C92.7408 8.97493 81.8223 12.087 73.699 19.2395L2.56519 81.8686C-3.20682 86.9485 1.84753 90.301 7.06241 86.953L72.3935 45.04C80.3115 39.96 84.346 45.6366 86.532 49.205L105.201 79.6959C107.604 83.6205 112.427 84.8805 110.789 78.5628H110.791Z" fill="url(#paint4_linear_1327_22)"/>
<path fill-rule="evenodd" clip-rule="evenodd" d="M110.791 78.5636L101.561 42.9816C100.437 40.2502 98.3291 36.733 94.7006 35.7446C88.532 34.0661 81.2184 39.4622 81.2184 39.4622L73.6641 44.3039C80.7486 40.5841 84.4668 45.8333 86.5325 49.2058L105.201 79.6967C107.604 83.6213 112.427 84.879 110.789 78.5636H110.791Z" fill="#25245B"/>
<path fill-rule="evenodd" clip-rule="evenodd" d="M72.6203 47.513L30.6652 85.3501C17.7141 97.0282 26.0287 104.39 36.6591 107.453L129.734 134.257C137.286 136.432 137.838 130.631 132.156 128.044L61.0102 95.6235C52.3864 91.6944 55.5852 85.5638 57.7712 81.9931L76.4518 51.5089C78.855 47.5865 77.6014 43.0163 72.6203 47.5108V47.513Z" fill="#1C94D2"/>
<path fill-rule="evenodd" clip-rule="evenodd" d="M72.6221 47.513L44.5482 72.8327C42.6006 75.1144 40.424 78.5938 41.3281 82.051C42.8673 87.9279 51.4793 91.2047 51.4793 91.2047L59.6994 94.9557C52.7423 91.0288 55.7051 85.3679 57.7731 81.9931L76.4536 51.5089C78.8568 47.5865 77.6033 43.0163 72.6221 47.5108V47.513Z" fill="#25245B"/>
<path fill-rule="evenodd" clip-rule="evenodd" d="M63.745 94.5586L119.499 109.816C136.708 114.527 139.293 104.053 136.775 93.844L114.699 4.46387C112.91 -2.78654 107.308 -0.328922 107.782 5.60363L113.708 79.9042C114.428 88.9087 107.197 89.374 102.825 89.3807L65.4896 89.4252C60.6855 89.4319 57.1208 92.7443 63.7427 94.5564L63.745 94.5586Z" fill="#1C94D2"/>
<path fill-rule="evenodd" clip-rule="evenodd" d="M63.7432 94.5583L101.052 104.767C104.121 105.212 108.408 105.244 111.126 102.77C115.746 98.5675 114.435 89.8969 114.435 89.8969L113.756 81.3086C113.64 88.9552 106.961 89.3738 102.828 89.3804L65.4925 89.425C60.6884 89.4316 57.1237 92.7441 63.7456 94.5561L63.7432 94.5583Z" fill="#25245B"/>
<defs>
<linearGradient id="paint0_linear_1327_22" x1="211.796" y1="90.5926" x2="208.075" y2="26.1359" gradientUnits="userSpaceOnUse">
<stop stop-color="#000007"/>
<stop offset="1" stop-color="#242731"/>
</linearGradient>
<linearGradient id="paint1_linear_1327_22" x1="283.344" y1="86.4609" x2="279.619" y2="21.9486" gradientUnits="userSpaceOnUse">
<stop stop-color="#000007"/>
<stop offset="1" stop-color="#242731"/>
</linearGradient>
<linearGradient id="paint2_linear_1327_22" x1="343.68" y1="82.9793" x2="339.954" y2="18.4669" gradientUnits="userSpaceOnUse">
<stop stop-color="#000007"/>
<stop offset="1" stop-color="#242731"/>
</linearGradient>
<linearGradient id="paint3_linear_1327_22" x1="427.864" y1="78.1175" x2="424.138" y2="13.6051" gradientUnits="userSpaceOnUse">
<stop stop-color="#000007"/>
<stop offset="1" stop-color="#242731"/>
</linearGradient>
<linearGradient id="paint4_linear_1327_22" x1="29.8979" y1="24.2616" x2="48.0365" y2="57.8027" gradientUnits="userSpaceOnUse">
<stop stop-color="white"/>
<stop offset="1" stop-color="#2484C6" stop-opacity="0"/>
</linearGradient>
</defs>
</svg>
