<svg width="457" height="182" viewBox="0 0 457 182" fill="none" xmlns="http://www.w3.org/2000/svg">
<path d="M101.006 31.9512L159.696 0V63.9047L101.006 31.9512Z" fill="#921A26"/>
<path d="M0 86.9876L58.6904 55.0342V118.939L0 86.9876Z" fill="#921A26"/>
<path d="M101.103 142.101L159.793 110.149V174.052L101.103 142.101Z" fill="#921A26"/>
<path d="M101.078 181.201V87.2548L65.4004 67.832V161.776L101.078 181.201Z" fill="#DB253D"/>
<path d="M144.96 63.0802L58.6273 16.1963L22.9707 35.6591L109.305 82.5407L144.96 63.0802Z" fill="#DB253D"/>
<path d="M194.834 44.6436L108.662 91.7879L108.749 130.638L194.924 83.4912L194.834 44.6436Z" fill="#DB253D"/>
<path d="M265.26 52.2852C261.551 54.6204 257.81 55.7891 254.037 55.7891C249.988 55.7891 246.846 54.3733 244.613 51.5395C242.377 48.7079 241.261 44.7699 241.261 39.7323C241.261 34.4342 242.33 30.4784 244.467 27.8672C246.605 25.2559 249.818 23.9492 254.11 23.9492C259.712 23.9492 263.447 26.4758 265.31 31.5313L261.155 32.8136C259.859 29.2852 257.526 27.5221 254.16 27.5221C251.424 27.5221 249.403 28.4838 248.1 30.4071C246.797 32.3305 246.145 35.4381 246.145 39.73C246.145 48.0668 248.905 52.2363 254.429 52.2363C255.529 52.2363 256.672 52.076 257.854 51.7554C259.037 51.4349 260 51.0297 260.746 50.5422V42.8466H253.629V39.1824H265.265V52.2852H265.26Z" fill="#2E2C33"/>
<path d="M309.754 55.3321L300.864 42.1603H295.082V55.3321H290.443V24.4316H302.153C305.925 24.4316 308.8 25.1685 310.776 26.6422C312.752 28.1158 313.739 30.2262 313.739 32.9754C313.739 35.2505 312.981 37.1672 311.468 38.7254C309.955 40.2837 307.925 41.261 305.382 41.6572L315.099 55.3321H309.754ZM309.074 33.0444C309.074 29.6385 306.612 27.9355 301.69 27.9355H295.082V38.7009H301.884C304.199 38.7009 305.977 38.2134 307.216 37.2339C308.456 36.2567 309.074 34.8587 309.074 33.0422V33.0444Z" fill="#2E2C33"/>
<path d="M360.31 44.1104C360.31 48.1886 359.387 51.1537 357.54 53.0103C355.694 54.8647 352.732 55.7929 348.65 55.7929C344.568 55.7929 341.837 54.8958 340.064 53.1016C338.291 51.3073 337.403 48.449 337.403 44.5222V24.4339H342.042V43.9256C342.042 47.0399 342.517 49.2059 343.463 50.4191C344.41 51.6324 346.131 52.2401 348.626 52.2401C351.122 52.2401 353.064 51.6145 354.115 50.3613C355.168 49.1102 355.694 46.864 355.694 43.6273V24.4316H360.31V44.1081V44.1104Z" fill="#2E2C33"/>
<path d="M408.576 33.6855C408.576 35.5955 408.094 37.2963 407.131 38.7944C406.168 40.2904 404.792 41.4591 403.002 42.2983C401.213 43.1376 399.145 43.5583 396.796 43.5583H389.971V55.3321H385.332V24.4316H396.505C400.36 24.4316 403.335 25.2442 405.431 26.8714C407.528 28.4987 408.576 30.7693 408.576 33.6855ZM403.911 33.7545C403.911 29.8767 401.255 27.9355 395.944 27.9355H389.969V40.0989H396.137C398.55 40.0989 400.448 39.5424 401.834 38.4271C403.219 37.3119 403.911 35.7558 403.911 33.7545Z" fill="#2E2C33"/>
<path d="M456.189 39.7362C456.189 44.8829 455.117 48.8454 452.971 51.6235C450.826 54.4039 447.745 55.793 443.729 55.793C439.714 55.793 436.621 54.4262 434.499 51.6926C432.376 48.9589 431.316 44.9742 431.316 39.7362C431.316 34.4982 432.369 30.6737 434.475 27.9846C436.581 25.2977 439.68 23.9531 443.779 23.9531C447.877 23.9531 450.847 25.2777 452.986 27.9267C455.122 30.5758 456.192 34.5115 456.192 39.7339L456.189 39.7362ZM451.307 39.7362C451.307 31.5976 448.798 27.5282 443.776 27.5282C438.755 27.5282 436.198 31.5976 436.198 39.7362C436.198 43.8589 436.838 46.9732 438.118 49.0813C439.397 51.1895 441.276 52.2424 443.753 52.2424C446.392 52.2424 448.311 51.1739 449.511 49.0346C450.71 46.8975 451.307 43.7966 451.307 39.7339V39.7362Z" fill="#2E2C33"/>
<path d="M284.383 142.86L267.919 115.292H258.099V142.86H241.352V70.6455H269.397C279.388 70.6455 286.862 72.4843 291.822 76.1596C296.779 79.8349 299.258 85.1352 299.258 92.0584C299.258 96.9491 297.858 101.105 295.056 104.531C292.256 107.957 288.375 110.366 283.418 111.757L303.231 142.86H284.383ZM282.395 92.7017C282.395 89.347 281.222 86.876 278.876 85.2888C276.529 83.7016 272.782 82.9069 267.636 82.9069H258.099V103.035H268.092C277.629 103.035 282.398 99.5915 282.398 92.7039L282.395 92.7017Z" fill="#2E2C33"/>
<path d="M383.747 142.86H367.056L361.834 125.194H335.947L330.725 142.86H313.978L339.127 70.6455H358.655L383.747 142.86ZM348.891 80.3892C348.586 81.8873 348.029 84.129 347.217 87.1075C346.402 90.0883 343.82 98.8235 339.466 113.311H358.315C353.886 98.6076 351.284 89.81 350.508 86.9205C349.731 84.0288 349.193 81.8539 348.891 80.3892Z" fill="#2E2C33"/>
<path d="M456.462 93.4474C456.462 98.2291 455.308 102.432 452.999 106.054C450.69 109.676 447.35 112.469 442.98 114.433C438.608 116.396 433.377 117.378 427.283 117.378H416.101V142.86H399.354V70.6455H426.604C436.33 70.6455 443.738 72.5822 448.83 76.4534C453.92 80.3268 456.467 85.9922 456.467 93.4497L456.462 93.4474ZM439.602 93.7168C439.602 89.8278 438.362 87.0519 435.884 85.3934C433.405 83.735 429.687 82.9046 424.729 82.9046H416.101V105.228H425.185C430.18 105.228 433.832 104.255 436.141 102.31C438.45 100.364 439.604 97.5012 439.604 93.7168H439.602Z" fill="#2E2C33"/>
</svg>
